<svg width="107" height="30" viewBox="0 0 107 30" fill="none" xmlns="http://www.w3.org/2000/svg">
<path d="M35.088 23.096V19.928H38.712C39.624 19.928 40.432 19.792 41.136 19.52C41.856 19.232 42.464 18.832 42.96 18.32C43.456 17.808 43.832 17.208 44.088 16.52C44.36 15.816 44.496 15.04 44.496 14.192C44.496 13.312 44.36 12.528 44.088 11.84C43.832 11.136 43.456 10.536 42.96 10.04C42.464 9.544 41.856 9.168 41.136 8.912C40.432 8.656 39.624 8.528 38.712 8.528H35.088V5.36H38.496C40.08 5.36 41.464 5.592 42.648 6.056C43.832 6.52 44.816 7.16 45.6 7.976C46.384 8.776 46.968 9.696 47.352 10.736C47.752 11.76 47.952 12.824 47.952 13.928V14.456C47.952 15.512 47.752 16.552 47.352 17.576C46.968 18.6 46.384 19.528 45.6 20.36C44.816 21.192 43.832 21.856 42.648 22.352C41.464 22.848 40.08 23.096 38.496 23.096H35.088ZM32.16 23.096V5.36H35.568V23.096H32.16ZM56.5718 23.456C55.4518 23.456 54.4678 23.264 53.6198 22.88C52.7878 22.496 52.0918 21.984 51.5318 21.344C50.9878 20.688 50.5718 19.96 50.2838 19.16C50.0118 18.36 49.8758 17.544 49.8758 16.712V16.256C49.8758 15.392 50.0118 14.56 50.2838 13.76C50.5718 12.944 50.9878 12.224 51.5318 11.6C52.0918 10.96 52.7798 10.456 53.5958 10.088C54.4118 9.704 55.3558 9.512 56.4278 9.512C57.8358 9.512 59.0118 9.824 59.9558 10.448C60.9158 11.056 61.6358 11.864 62.1158 12.872C62.5958 13.864 62.8358 14.936 62.8358 16.088V17.288H51.2918V15.248H60.7478L59.7158 16.256C59.7158 15.424 59.5958 14.712 59.3558 14.12C59.1158 13.528 58.7478 13.072 58.2518 12.752C57.7718 12.432 57.1638 12.272 56.4278 12.272C55.6918 12.272 55.0678 12.44 54.5558 12.776C54.0438 13.112 53.6518 13.6 53.3798 14.24C53.1238 14.864 52.9958 15.616 52.9958 16.496C52.9958 17.312 53.1238 18.04 53.3798 18.68C53.6358 19.304 54.0278 19.8 54.5558 20.168C55.0838 20.52 55.7558 20.696 56.5718 20.696C57.3878 20.696 58.0518 20.536 58.5638 20.216C59.0758 19.88 59.4038 19.472 59.5478 18.992H62.6198C62.4278 19.888 62.0598 20.672 61.5157 21.344C60.9718 22.016 60.2758 22.536 59.4278 22.904C58.5958 23.272 57.6438 23.456 56.5718 23.456ZM68.1214 23L64.0414 9.968H67.4734L71.3854 23H68.1214ZM69.1054 23V20.264H72.6334V23H69.1054ZM70.4254 23L73.7854 9.968H77.0014L73.4734 23H70.4254ZM78.1024 23V19.16H81.8464V23H78.1024ZM85.6997 23V9.968H89.0357V23H85.6997ZM83.8757 12.464V9.968H89.0357V12.464H83.8757ZM86.9237 8.408C86.2677 8.408 85.7797 8.24 85.4597 7.904C85.1557 7.552 85.0037 7.12 85.0037 6.608C85.0037 6.064 85.1557 5.624 85.4597 5.288C85.7797 4.952 86.2677 4.784 86.9237 4.784C87.5797 4.784 88.0597 4.952 88.3637 5.288C88.6677 5.624 88.8197 6.064 88.8197 6.608C88.8197 7.12 88.6677 7.552 88.3637 7.904C88.0597 8.24 87.5797 8.408 86.9237 8.408ZM92.8804 23V9.968H95.5204V15.56H95.2804C95.2804 14.232 95.4564 13.128 95.8084 12.248C96.1604 11.352 96.6804 10.68 97.3684 10.232C98.0724 9.784 98.9444 9.56 99.9844 9.56H100.128C101.68 9.56 102.856 10.064 103.656 11.072C104.456 12.064 104.856 13.552 104.856 15.536V23H101.52V15.248C101.52 14.448 101.288 13.8 100.824 13.304C100.376 12.808 99.7524 12.56 98.9524 12.56C98.1364 12.56 97.4724 12.816 96.9604 13.328C96.4644 13.824 96.2164 14.496 96.2164 15.344V23H92.8804Z" fill="#293145"/>
<path d="M11.6278 26.0636L1.57268 8.86931L21.491 8.75847L11.6278 26.0636Z" fill="#293145"/>
<path d="M11.5 4L21.4593 21.25H1.54071L11.5 4Z" fill="#A180E8"/>
</svg>
