<svg width="92" height="21" viewBox="0 0 92 21" fill="none" xmlns="http://www.w3.org/2000/svg">
<path d="M9.85489 12.6608H4.10077L2.71394 17.0434H0.280914L5.7309 0.843473H8.27342L13.7234 17.0434H11.2417L9.85489 12.6608ZM4.69686 10.6391H9.25879L7.00824 3.53042H6.94741L4.69686 10.6391ZM25.4993 11.1347C25.4993 14.7999 23.6745 17.1608 20.9008 17.1608C20.2008 17.2008 19.5044 17.0287 18.8912 16.6643C18.2781 16.2998 17.773 15.7577 17.4338 15.0999H17.3851V20.9434H15.1224V5.22606H17.3121V7.18258H17.3486C17.7032 6.52574 18.2176 5.98459 18.8369 5.617C19.4561 5.2494 20.1569 5.06919 20.8643 5.09563C23.6623 5.09563 25.4993 7.46953 25.4993 11.1347ZM23.1757 11.1347C23.1757 8.74778 22.02 7.16953 20.2561 7.16953C18.5408 7.16953 17.3729 8.77387 17.3729 11.1347C17.3729 13.5086 18.5408 15.113 20.2683 15.113C22.02 15.113 23.1757 13.5478 23.1757 11.1347ZM37.6158 11.1347C37.6158 14.7999 35.791 17.1608 33.0295 17.1608C32.3294 17.2008 31.633 17.0287 31.0199 16.6643C30.4068 16.2998 29.9017 15.7577 29.5624 15.0999H29.5016V20.9434H27.251V5.22606H29.4408V7.18258H29.4773C29.8309 6.52774 30.3434 5.98788 30.9603 5.62041C31.5772 5.25294 32.2755 5.07158 32.9808 5.09563C35.7788 5.09563 37.6158 7.46953 37.6158 11.1347ZM35.3044 11.1347C35.3044 8.74778 34.1487 7.16953 32.3847 7.16953C30.6573 7.16953 29.5016 8.77387 29.5016 11.1347C29.5016 13.5086 30.6573 15.113 32.3847 15.113C34.1487 15.113 35.3044 13.5478 35.3044 11.1347ZM45.6326 12.5304C45.8029 14.1347 47.2506 15.1912 49.2456 15.1912C51.1556 15.1912 52.5302 14.1347 52.5302 12.6869C52.5302 11.4217 51.6908 10.6782 49.7322 10.1565L47.7858 9.64778C45 8.93039 43.7227 7.54779 43.7227 5.29128C43.7227 2.48694 45.9854 0.569563 49.2091 0.569563C52.4086 0.569563 54.5983 2.48694 54.6713 5.29128H52.3842C52.2504 3.67389 50.9974 2.6826 49.1848 2.6826C47.36 2.6826 46.1192 3.6739 46.1192 5.12172C46.1192 6.25649 46.9099 6.94779 48.8563 7.45649L50.523 7.88692C53.6251 8.66952 54.9024 10.013 54.9024 12.3739C54.9024 15.413 52.6519 17.3043 49.0753 17.3043C45.7299 17.3043 43.4672 15.4521 43.3212 12.5304H45.6326ZM59.7928 2.43477V5.22606H61.8852V7.14344H59.7928V13.6652C59.7928 14.6695 60.2064 15.1391 61.131 15.1391C61.3743 15.1391 61.6176 15.113 61.8609 15.0869V16.9912C61.4594 17.0825 61.0337 17.1217 60.62 17.1086C58.3817 17.1086 57.5179 16.1956 57.5179 13.913V7.14344H55.9121V5.22606H57.5179V2.43477H59.7928ZM63.0896 11.1347C63.0896 7.41736 65.1333 5.08258 68.3206 5.08258C71.5079 5.08258 73.5516 7.4304 73.5516 11.1347C73.5516 14.8651 71.52 17.1869 68.3206 17.1869C65.1212 17.1869 63.0896 14.8651 63.0896 11.1347ZM71.2402 11.1347C71.2402 8.59126 70.1454 7.09127 68.3206 7.09127C66.4958 7.09127 65.401 8.59126 65.401 11.1347C65.401 13.6912 66.4958 15.1782 68.3206 15.1782C70.1454 15.1782 71.2402 13.6912 71.2402 11.1347ZM75.4129 5.22606H77.5661V7.23475H77.6148C77.9189 5.94345 79.0259 5.0565 80.2668 5.10867C80.5222 5.10867 80.7899 5.13476 81.0453 5.19998V7.46953C80.715 7.35771 80.3698 7.30483 80.0235 7.31301C79.6937 7.29726 79.3648 7.35863 79.0594 7.49287C78.754 7.6271 78.4795 7.83097 78.2549 8.09034C78.0304 8.34971 77.8612 8.65836 77.759 8.99487C77.6569 9.33138 77.6243 9.6877 77.6634 10.0391V17.0434H75.4129V5.22606ZM91.4587 13.5738C91.1546 15.713 89.2082 17.1869 86.7143 17.1869C83.5149 17.1869 81.5319 14.8782 81.5319 11.1869C81.5319 7.48257 83.527 5.08258 86.6291 5.08258C89.6704 5.08258 91.5925 7.32605 91.5925 10.913V11.7347H83.8068V11.8912C83.7721 12.3258 83.8238 12.7633 83.9587 13.1748C84.0936 13.5863 84.3084 13.9624 84.5891 14.2781C84.8697 14.5938 85.2098 14.842 85.5866 15.0061C85.9635 15.1703 86.3686 15.2467 86.7751 15.2304C87.87 15.3347 88.904 14.6695 89.3176 13.5738H91.4587ZM83.819 10.0521H89.3298C89.35 9.66133 89.2947 9.27027 89.1674 8.90345C89.0401 8.53662 88.8435 8.20192 88.59 7.92031C88.3365 7.63869 88.0315 7.41623 87.6941 7.26684C87.3567 7.11745 86.9941 7.04436 86.6291 7.05214C85.8871 7.05214 85.1754 7.36821 84.6507 7.93082C84.1259 8.49342 83.8312 9.25648 83.8312 10.0521H83.819Z" fill="white"/>
</svg>
